<svg xmlns="http://www.w3.org/2000/svg" width="35.458" height="35.45" viewBox="0 0 35.458 35.45">
  <g id="cloud-computing" transform="translate(-0.001 -0.056)">
    <g id="Groupe_11449" data-name="Groupe 11449" transform="translate(0.001 0.056)">
      <g id="Groupe_11448" data-name="Groupe 11448" transform="translate(0 0)">
        <path id="Tracé_28319" data-name="Tracé 28319" d="M32.766,11.971a9.858,9.858,0,0,0,.167-1.8A10.132,10.132,0,0,0,13.276,6.734a5.066,5.066,0,0,0-6.8,3.525A7.6,7.6,0,0,0,7.6,25.373h6.332a1.266,1.266,0,1,0,0-2.533H7.6a5.066,5.066,0,1,1,0-10.132A1.266,1.266,0,0,0,8.87,11.442a2.533,2.533,0,0,1,4.306-1.8,1.266,1.266,0,0,0,2.139-.7,7.591,7.591,0,1,1,14.977,2.489q-.061.37-.159.732a1.266,1.266,0,0,0,.523,1.393,5.066,5.066,0,0,1-2.789,9.287h-3.8a1.266,1.266,0,1,0,0,2.533h3.8a7.6,7.6,0,0,0,4.9-13.4Z" transform="translate(-0.001 -0.056)" fill="#fff"/>
      </g>
    </g>
    <g id="Groupe_11451" data-name="Groupe 11451" transform="translate(11.419 11.442)">
      <g id="Groupe_11450" data-name="Groupe 11450">
        <path id="Tracé_28320" data-name="Tracé 28320" d="M168.647,169.06a1.267,1.267,0,0,0-1.76,0l-4.173,4.171V154.757a1.266,1.266,0,1,0-2.533,0V173.23l-4.171-4.171a1.266,1.266,0,0,0-1.791,1.791l6.332,6.332a1.266,1.266,0,0,0,1.791,0l0,0,6.332-6.332A1.266,1.266,0,0,0,168.647,169.06Z" transform="translate(-153.865 -153.491)" fill="#fff"/>
      </g>
    </g>
  </g>
</svg>
