<svg version="1.2" baseProfile="tiny-ps" xmlns="http://www.w3.org/2000/svg" viewBox="0 0 61 66" width="61" height="66">
	<title>triangle-svg</title>
	<defs>
		<clipPath clipPathUnits="userSpaceOnUse" id="cp1">
			<path d="M0 0L61 0L61 66L0 66L0 0Z" />
		</clipPath>
	</defs>
	<style>
		tspan { white-space:pre }
		.shp0 { fill: #3184af } 
	</style>
	<g id="Clip-Path: Groupe_de_masques_89" clip-path="url(#cp1)">
		<g id="Groupe_de_masques_89">
			<g id="Groupe_12194">
				<path id="Tracé_28418" class="shp0" d="M5.98 41.65C4.47 40.77 3.21 39.51 2.33 37.99C1.46 36.47 1 34.75 1 33C1 31.25 1.46 29.53 2.33 28.01C3.21 26.49 4.47 25.23 5.98 24.35L45.04 1.7C46.56 0.82 48.29 0.35 50.05 0.35C51.8 0.35 53.53 0.81 55.05 1.69C56.58 2.57 57.84 3.83 58.72 5.35C59.6 6.87 60.06 8.6 60.06 10.36L60.06 55.64C60.06 57.4 59.6 59.13 58.72 60.65C57.84 62.17 56.58 63.43 55.05 64.31C53.53 65.19 51.8 65.65 50.05 65.65C48.29 65.65 46.56 65.18 45.04 64.3L5.98 41.65Z" />
			</g>
		</g>
	</g>
</svg>